<mxfile host="Electron" agent="Mozilla/5.0 (X11; Linux x86_64) AppleWebKit/537.36 (KHTML, like Gecko) draw.io/24.7.17 Chrome/128.0.6613.36 Electron/32.0.1 Safari/537.36" version="24.7.17">
  <diagram name="PÃ¡gina-1" id="OtZALe1Nh6a4Uc22kNSL">
    <mxGraphModel dx="1591" dy="947" grid="1" gridSize="10" guides="1" tooltips="1" connect="1" arrows="1" fold="1" page="1" pageScale="1" pageWidth="827" pageHeight="1169" math="0" shadow="0">
      <root>
        <mxCell id="0" />
        <mxCell id="1" parent="0" />
        <mxCell id="NriJVtc9jb94uUBbqhKk-72" value="" style="rounded=0;whiteSpace=wrap;html=1;strokeWidth=3;strokeColor=#FF0000;" vertex="1" parent="1">
          <mxGeometry x="116" y="390" width="304" height="470" as="geometry" />
        </mxCell>
        <mxCell id="NriJVtc9jb94uUBbqhKk-71" value="" style="rounded=0;whiteSpace=wrap;html=1;strokeWidth=3;strokeColor=#9933FF;" vertex="1" parent="1">
          <mxGeometry x="660" y="150" width="290" height="740" as="geometry" />
        </mxCell>
        <mxCell id="NriJVtc9jb94uUBbqhKk-25" value="" style="edgeStyle=orthogonalEdgeStyle;rounded=0;orthogonalLoop=1;jettySize=auto;html=1;" edge="1" parent="1" source="NriJVtc9jb94uUBbqhKk-2" target="NriJVtc9jb94uUBbqhKk-4">
          <mxGeometry relative="1" as="geometry" />
        </mxCell>
        <mxCell id="NriJVtc9jb94uUBbqhKk-2" value="&lt;b&gt;ADD &amp;amp; NORM&lt;/b&gt;" style="rounded=1;whiteSpace=wrap;html=1;fillColor=#fad7ac;strokeColor=#b46504;" vertex="1" parent="1">
          <mxGeometry x="726" y="679" width="120" height="60" as="geometry" />
        </mxCell>
        <mxCell id="NriJVtc9jb94uUBbqhKk-3" value="&lt;b&gt;DENSE&lt;/b&gt;&lt;div&gt;&lt;b&gt;(Softmax)&lt;/b&gt;&lt;/div&gt;" style="rounded=1;whiteSpace=wrap;html=1;fillColor=#b0e3e6;strokeColor=#0e8088;" vertex="1" parent="1">
          <mxGeometry x="726" y="179" width="120" height="60" as="geometry" />
        </mxCell>
        <mxCell id="NriJVtc9jb94uUBbqhKk-26" value="" style="edgeStyle=orthogonalEdgeStyle;rounded=0;orthogonalLoop=1;jettySize=auto;html=1;" edge="1" parent="1" source="NriJVtc9jb94uUBbqhKk-4" target="NriJVtc9jb94uUBbqhKk-7">
          <mxGeometry relative="1" as="geometry" />
        </mxCell>
        <mxCell id="NriJVtc9jb94uUBbqhKk-4" value="&lt;div&gt;&lt;b&gt;&lt;br&gt;&lt;/b&gt;&lt;/div&gt;&lt;b&gt;MULTI-HEAD&lt;/b&gt;&lt;div&gt;&lt;b&gt;ATTENTION&lt;br&gt;&lt;/b&gt;&lt;div&gt;&lt;br&gt;&lt;/div&gt;&lt;/div&gt;" style="rounded=1;whiteSpace=wrap;html=1;fillColor=#fa6800;fontColor=#000000;strokeColor=#C73500;" vertex="1" parent="1">
          <mxGeometry x="726" y="579" width="120" height="60" as="geometry" />
        </mxCell>
        <mxCell id="NriJVtc9jb94uUBbqhKk-24" value="" style="edgeStyle=orthogonalEdgeStyle;rounded=0;orthogonalLoop=1;jettySize=auto;html=1;" edge="1" parent="1" source="NriJVtc9jb94uUBbqhKk-5" target="NriJVtc9jb94uUBbqhKk-2">
          <mxGeometry relative="1" as="geometry" />
        </mxCell>
        <mxCell id="NriJVtc9jb94uUBbqhKk-5" value="&lt;b&gt;MASKED&lt;/b&gt;&lt;div&gt;&lt;b&gt;MULTI-HEAD&lt;/b&gt;&lt;/div&gt;&lt;div&gt;&lt;b&gt;ATTENTION&lt;/b&gt;&lt;/div&gt;" style="rounded=1;whiteSpace=wrap;html=1;fillColor=#e51400;strokeColor=#B20000;fontColor=#ffffff;" vertex="1" parent="1">
          <mxGeometry x="726" y="769" width="120" height="60" as="geometry" />
        </mxCell>
        <mxCell id="NriJVtc9jb94uUBbqhKk-30" value="" style="edgeStyle=orthogonalEdgeStyle;rounded=0;orthogonalLoop=1;jettySize=auto;html=1;" edge="1" parent="1" source="NriJVtc9jb94uUBbqhKk-6" target="NriJVtc9jb94uUBbqhKk-10">
          <mxGeometry relative="1" as="geometry" />
        </mxCell>
        <mxCell id="NriJVtc9jb94uUBbqhKk-6" value="&lt;b&gt;FEED FORWARD&lt;/b&gt;&lt;div&gt;&lt;b&gt;NEURAL NETWORK&lt;/b&gt;&lt;/div&gt;" style="rounded=1;whiteSpace=wrap;html=1;fillColor=#d0cee2;strokeColor=#56517e;" vertex="1" parent="1">
          <mxGeometry x="726" y="389" width="120" height="60" as="geometry" />
        </mxCell>
        <mxCell id="NriJVtc9jb94uUBbqhKk-29" value="" style="edgeStyle=orthogonalEdgeStyle;rounded=0;orthogonalLoop=1;jettySize=auto;html=1;" edge="1" parent="1" source="NriJVtc9jb94uUBbqhKk-7" target="NriJVtc9jb94uUBbqhKk-6">
          <mxGeometry relative="1" as="geometry" />
        </mxCell>
        <mxCell id="NriJVtc9jb94uUBbqhKk-7" value="&lt;b&gt;ADD &amp;amp; NORM&lt;/b&gt;" style="rounded=1;whiteSpace=wrap;html=1;fillColor=#fad7ac;strokeColor=#b46504;" vertex="1" parent="1">
          <mxGeometry x="726" y="499" width="120" height="50" as="geometry" />
        </mxCell>
        <mxCell id="NriJVtc9jb94uUBbqhKk-19" style="edgeStyle=orthogonalEdgeStyle;rounded=0;orthogonalLoop=1;jettySize=auto;html=1;" edge="1" parent="1" source="NriJVtc9jb94uUBbqhKk-8">
          <mxGeometry relative="1" as="geometry">
            <mxPoint x="786" y="959" as="targetPoint" />
          </mxGeometry>
        </mxCell>
        <mxCell id="NriJVtc9jb94uUBbqhKk-8" value="&lt;b&gt;EMBEDDINGS&lt;/b&gt;" style="rounded=1;whiteSpace=wrap;html=1;fillColor=#b1ddf0;strokeColor=#10739e;" vertex="1" parent="1">
          <mxGeometry x="736" y="1019" width="100" height="40" as="geometry" />
        </mxCell>
        <mxCell id="NriJVtc9jb94uUBbqhKk-22" style="edgeStyle=orthogonalEdgeStyle;rounded=0;orthogonalLoop=1;jettySize=auto;html=1;" edge="1" parent="1" source="NriJVtc9jb94uUBbqhKk-9">
          <mxGeometry relative="1" as="geometry">
            <mxPoint x="756" y="929" as="targetPoint" />
          </mxGeometry>
        </mxCell>
        <mxCell id="NriJVtc9jb94uUBbqhKk-9" value="&lt;b&gt;POSITIONAL&lt;/b&gt;&lt;div&gt;&lt;b&gt;ENCODING&lt;/b&gt;&lt;/div&gt;" style="rounded=1;whiteSpace=wrap;html=1;fillColor=#b0e3e6;strokeColor=#0e8088;" vertex="1" parent="1">
          <mxGeometry x="530" y="909" width="110" height="40" as="geometry" />
        </mxCell>
        <mxCell id="NriJVtc9jb94uUBbqhKk-32" value="" style="edgeStyle=orthogonalEdgeStyle;rounded=0;orthogonalLoop=1;jettySize=auto;html=1;" edge="1" parent="1" source="NriJVtc9jb94uUBbqhKk-10" target="NriJVtc9jb94uUBbqhKk-3">
          <mxGeometry relative="1" as="geometry" />
        </mxCell>
        <mxCell id="NriJVtc9jb94uUBbqhKk-10" value="&lt;b&gt;ADD &amp;amp; NORM&lt;/b&gt;" style="rounded=1;whiteSpace=wrap;html=1;fillColor=#fad7ac;strokeColor=#b46504;" vertex="1" parent="1">
          <mxGeometry x="726" y="289" width="120" height="60" as="geometry" />
        </mxCell>
        <mxCell id="NriJVtc9jb94uUBbqhKk-16" value="" style="ellipse;whiteSpace=wrap;html=1;aspect=fixed;" vertex="1" parent="1">
          <mxGeometry x="761" y="904" width="50" height="50" as="geometry" />
        </mxCell>
        <mxCell id="NriJVtc9jb94uUBbqhKk-17" value="" style="endArrow=none;html=1;rounded=0;" edge="1" parent="1">
          <mxGeometry width="50" height="50" relative="1" as="geometry">
            <mxPoint x="785.5" y="954" as="sourcePoint" />
            <mxPoint x="785.5" y="904" as="targetPoint" />
          </mxGeometry>
        </mxCell>
        <mxCell id="NriJVtc9jb94uUBbqhKk-18" value="" style="endArrow=none;html=1;rounded=0;" edge="1" parent="1">
          <mxGeometry width="50" height="50" relative="1" as="geometry">
            <mxPoint x="763.25" y="928.5" as="sourcePoint" />
            <mxPoint x="808.75" y="928.5" as="targetPoint" />
          </mxGeometry>
        </mxCell>
        <mxCell id="NriJVtc9jb94uUBbqhKk-20" value="" style="endArrow=classic;html=1;rounded=0;" edge="1" parent="1">
          <mxGeometry width="50" height="50" relative="1" as="geometry">
            <mxPoint x="785.5" y="904" as="sourcePoint" />
            <mxPoint x="785.5" y="834" as="targetPoint" />
          </mxGeometry>
        </mxCell>
        <mxCell id="NriJVtc9jb94uUBbqhKk-33" value="" style="endArrow=classic;html=1;rounded=0;" edge="1" parent="1">
          <mxGeometry width="50" height="50" relative="1" as="geometry">
            <mxPoint x="786" y="1109" as="sourcePoint" />
            <mxPoint x="786" y="1059" as="targetPoint" />
          </mxGeometry>
        </mxCell>
        <mxCell id="NriJVtc9jb94uUBbqhKk-34" value="&lt;b&gt;&lt;font color=&quot;#00cccc&quot;&gt;TARGET SEQUENCE&lt;/font&gt;&lt;/b&gt;" style="text;html=1;align=center;verticalAlign=middle;whiteSpace=wrap;rounded=0;" vertex="1" parent="1">
          <mxGeometry x="746" y="1129" width="60" height="30" as="geometry" />
        </mxCell>
        <mxCell id="NriJVtc9jb94uUBbqhKk-36" value="" style="endArrow=classic;html=1;rounded=0;" edge="1" parent="1">
          <mxGeometry width="50" height="50" relative="1" as="geometry">
            <mxPoint x="786" y="179" as="sourcePoint" />
            <mxPoint x="786" y="120" as="targetPoint" />
          </mxGeometry>
        </mxCell>
        <mxCell id="NriJVtc9jb94uUBbqhKk-37" value="&lt;b&gt;OUTPUT&lt;/b&gt;&lt;div&gt;&lt;b&gt;PROBABILITIES&lt;/b&gt;&lt;/div&gt;" style="text;html=1;align=center;verticalAlign=middle;whiteSpace=wrap;rounded=0;" vertex="1" parent="1">
          <mxGeometry x="761" y="70" width="60" height="30" as="geometry" />
        </mxCell>
        <mxCell id="NriJVtc9jb94uUBbqhKk-51" value="" style="edgeStyle=orthogonalEdgeStyle;rounded=0;orthogonalLoop=1;jettySize=auto;html=1;" edge="1" parent="1" source="NriJVtc9jb94uUBbqhKk-38" target="NriJVtc9jb94uUBbqhKk-39">
          <mxGeometry relative="1" as="geometry" />
        </mxCell>
        <mxCell id="NriJVtc9jb94uUBbqhKk-38" value="&lt;div&gt;&lt;b&gt;&lt;br&gt;&lt;/b&gt;&lt;/div&gt;&lt;b&gt;MULTI-HEAD&lt;/b&gt;&lt;div&gt;&lt;b&gt;ATTENTION&lt;br&gt;&lt;/b&gt;&lt;div&gt;&lt;br&gt;&lt;/div&gt;&lt;/div&gt;" style="rounded=1;whiteSpace=wrap;html=1;fillColor=#fa6800;fontColor=#000000;strokeColor=#C73500;" vertex="1" parent="1">
          <mxGeometry x="226" y="750" width="120" height="60" as="geometry" />
        </mxCell>
        <mxCell id="NriJVtc9jb94uUBbqhKk-52" style="edgeStyle=orthogonalEdgeStyle;rounded=0;orthogonalLoop=1;jettySize=auto;html=1;entryX=0.5;entryY=1;entryDx=0;entryDy=0;" edge="1" parent="1" source="NriJVtc9jb94uUBbqhKk-39" target="NriJVtc9jb94uUBbqhKk-41">
          <mxGeometry relative="1" as="geometry" />
        </mxCell>
        <mxCell id="NriJVtc9jb94uUBbqhKk-39" value="&lt;b&gt;ADD &amp;amp; NORM&lt;/b&gt;" style="rounded=1;whiteSpace=wrap;html=1;fillColor=#fad7ac;strokeColor=#b46504;" vertex="1" parent="1">
          <mxGeometry x="226" y="660" width="120" height="60" as="geometry" />
        </mxCell>
        <mxCell id="NriJVtc9jb94uUBbqhKk-40" value="&lt;b&gt;ADD &amp;amp; NORM&lt;/b&gt;" style="rounded=1;whiteSpace=wrap;html=1;fillColor=#fad7ac;strokeColor=#b46504;" vertex="1" parent="1">
          <mxGeometry x="226" y="430" width="120" height="60" as="geometry" />
        </mxCell>
        <mxCell id="NriJVtc9jb94uUBbqhKk-53" style="edgeStyle=orthogonalEdgeStyle;rounded=0;orthogonalLoop=1;jettySize=auto;html=1;entryX=0.5;entryY=1;entryDx=0;entryDy=0;" edge="1" parent="1" source="NriJVtc9jb94uUBbqhKk-41" target="NriJVtc9jb94uUBbqhKk-40">
          <mxGeometry relative="1" as="geometry" />
        </mxCell>
        <mxCell id="NriJVtc9jb94uUBbqhKk-41" value="&lt;b&gt;FEED FORWARD&lt;/b&gt;&lt;div&gt;&lt;b&gt;NEURAL NETWORK&lt;/b&gt;&lt;/div&gt;" style="rounded=1;whiteSpace=wrap;html=1;fillColor=#d0cee2;strokeColor=#56517e;" vertex="1" parent="1">
          <mxGeometry x="226" y="540" width="120" height="60" as="geometry" />
        </mxCell>
        <mxCell id="NriJVtc9jb94uUBbqhKk-42" style="edgeStyle=orthogonalEdgeStyle;rounded=0;orthogonalLoop=1;jettySize=auto;html=1;" edge="1" parent="1" source="NriJVtc9jb94uUBbqhKk-43">
          <mxGeometry relative="1" as="geometry">
            <mxPoint x="286" y="925" as="targetPoint" />
          </mxGeometry>
        </mxCell>
        <mxCell id="NriJVtc9jb94uUBbqhKk-43" value="&lt;b&gt;EMBEDDINGS&lt;/b&gt;" style="rounded=1;whiteSpace=wrap;html=1;fillColor=#b1ddf0;strokeColor=#10739e;" vertex="1" parent="1">
          <mxGeometry x="236" y="985" width="100" height="40" as="geometry" />
        </mxCell>
        <mxCell id="NriJVtc9jb94uUBbqhKk-44" style="edgeStyle=orthogonalEdgeStyle;rounded=0;orthogonalLoop=1;jettySize=auto;html=1;" edge="1" parent="1" source="NriJVtc9jb94uUBbqhKk-45">
          <mxGeometry relative="1" as="geometry">
            <mxPoint x="256" y="895" as="targetPoint" />
          </mxGeometry>
        </mxCell>
        <mxCell id="NriJVtc9jb94uUBbqhKk-45" value="&lt;b&gt;POSITIONAL&lt;/b&gt;&lt;div&gt;&lt;b&gt;ENCODING&lt;/b&gt;&lt;/div&gt;" style="rounded=1;whiteSpace=wrap;html=1;fillColor=#b0e3e6;strokeColor=#0e8088;" vertex="1" parent="1">
          <mxGeometry x="30" y="875" width="110" height="40" as="geometry" />
        </mxCell>
        <mxCell id="NriJVtc9jb94uUBbqhKk-46" value="" style="ellipse;whiteSpace=wrap;html=1;aspect=fixed;" vertex="1" parent="1">
          <mxGeometry x="261" y="870" width="50" height="50" as="geometry" />
        </mxCell>
        <mxCell id="NriJVtc9jb94uUBbqhKk-47" value="" style="endArrow=none;html=1;rounded=0;" edge="1" parent="1">
          <mxGeometry width="50" height="50" relative="1" as="geometry">
            <mxPoint x="285.5" y="920" as="sourcePoint" />
            <mxPoint x="285.5" y="870" as="targetPoint" />
          </mxGeometry>
        </mxCell>
        <mxCell id="NriJVtc9jb94uUBbqhKk-48" value="" style="endArrow=none;html=1;rounded=0;" edge="1" parent="1">
          <mxGeometry width="50" height="50" relative="1" as="geometry">
            <mxPoint x="263.25" y="894.5" as="sourcePoint" />
            <mxPoint x="308.75" y="894.5" as="targetPoint" />
          </mxGeometry>
        </mxCell>
        <mxCell id="NriJVtc9jb94uUBbqhKk-49" value="" style="endArrow=classic;html=1;rounded=0;" edge="1" parent="1">
          <mxGeometry width="50" height="50" relative="1" as="geometry">
            <mxPoint x="286" y="1075" as="sourcePoint" />
            <mxPoint x="286" y="1025" as="targetPoint" />
          </mxGeometry>
        </mxCell>
        <mxCell id="NriJVtc9jb94uUBbqhKk-50" value="" style="endArrow=classic;html=1;rounded=0;exitX=0.5;exitY=0;exitDx=0;exitDy=0;entryX=0.5;entryY=1;entryDx=0;entryDy=0;" edge="1" parent="1" source="NriJVtc9jb94uUBbqhKk-46" target="NriJVtc9jb94uUBbqhKk-38">
          <mxGeometry width="50" height="50" relative="1" as="geometry">
            <mxPoint x="260" y="860" as="sourcePoint" />
            <mxPoint x="310" y="810" as="targetPoint" />
          </mxGeometry>
        </mxCell>
        <mxCell id="NriJVtc9jb94uUBbqhKk-54" value="&lt;b&gt;&lt;font color=&quot;#0066cc&quot;&gt;INPUT&lt;/font&gt;&lt;/b&gt;&lt;div&gt;&lt;b&gt;&lt;font color=&quot;#0066cc&quot;&gt;SEQUENCE&lt;/font&gt;&lt;/b&gt;&lt;/div&gt;" style="text;html=1;align=center;verticalAlign=middle;whiteSpace=wrap;rounded=0;" vertex="1" parent="1">
          <mxGeometry x="251" y="1090" width="60" height="30" as="geometry" />
        </mxCell>
        <mxCell id="NriJVtc9jb94uUBbqhKk-55" value="" style="endArrow=none;html=1;rounded=0;" edge="1" parent="1">
          <mxGeometry width="50" height="50" relative="1" as="geometry">
            <mxPoint x="160" y="840" as="sourcePoint" />
            <mxPoint x="160" y="689" as="targetPoint" />
          </mxGeometry>
        </mxCell>
        <mxCell id="NriJVtc9jb94uUBbqhKk-56" value="" style="endArrow=none;html=1;rounded=0;" edge="1" parent="1">
          <mxGeometry width="50" height="50" relative="1" as="geometry">
            <mxPoint x="160" y="840" as="sourcePoint" />
            <mxPoint x="280" y="840" as="targetPoint" />
          </mxGeometry>
        </mxCell>
        <mxCell id="NriJVtc9jb94uUBbqhKk-57" value="" style="endArrow=classic;html=1;rounded=0;entryX=0;entryY=0.5;entryDx=0;entryDy=0;" edge="1" parent="1" target="NriJVtc9jb94uUBbqhKk-39">
          <mxGeometry width="50" height="50" relative="1" as="geometry">
            <mxPoint x="160" y="689" as="sourcePoint" />
            <mxPoint x="210" y="639" as="targetPoint" />
          </mxGeometry>
        </mxCell>
        <mxCell id="NriJVtc9jb94uUBbqhKk-58" value="" style="endArrow=none;html=1;rounded=0;" edge="1" parent="1">
          <mxGeometry width="50" height="50" relative="1" as="geometry">
            <mxPoint x="160" y="630" as="sourcePoint" />
            <mxPoint x="160" y="460" as="targetPoint" />
          </mxGeometry>
        </mxCell>
        <mxCell id="NriJVtc9jb94uUBbqhKk-59" value="" style="endArrow=none;html=1;rounded=0;" edge="1" parent="1">
          <mxGeometry width="50" height="50" relative="1" as="geometry">
            <mxPoint x="160" y="630" as="sourcePoint" />
            <mxPoint x="280" y="630" as="targetPoint" />
          </mxGeometry>
        </mxCell>
        <mxCell id="NriJVtc9jb94uUBbqhKk-60" value="" style="endArrow=classic;html=1;rounded=0;entryX=0;entryY=0.5;entryDx=0;entryDy=0;" edge="1" parent="1" target="NriJVtc9jb94uUBbqhKk-40">
          <mxGeometry width="50" height="50" relative="1" as="geometry">
            <mxPoint x="160" y="460" as="sourcePoint" />
            <mxPoint x="210" y="410" as="targetPoint" />
          </mxGeometry>
        </mxCell>
        <mxCell id="NriJVtc9jb94uUBbqhKk-61" value="" style="endArrow=none;html=1;rounded=0;" edge="1" parent="1">
          <mxGeometry width="50" height="50" relative="1" as="geometry">
            <mxPoint x="910" y="870" as="sourcePoint" />
            <mxPoint x="910" y="710" as="targetPoint" />
          </mxGeometry>
        </mxCell>
        <mxCell id="NriJVtc9jb94uUBbqhKk-62" value="" style="endArrow=classic;html=1;rounded=0;" edge="1" parent="1">
          <mxGeometry width="50" height="50" relative="1" as="geometry">
            <mxPoint x="910" y="710" as="sourcePoint" />
            <mxPoint x="846" y="710" as="targetPoint" />
          </mxGeometry>
        </mxCell>
        <mxCell id="NriJVtc9jb94uUBbqhKk-63" value="" style="endArrow=none;html=1;rounded=0;" edge="1" parent="1">
          <mxGeometry width="50" height="50" relative="1" as="geometry">
            <mxPoint x="790" y="870" as="sourcePoint" />
            <mxPoint x="910" y="870" as="targetPoint" />
          </mxGeometry>
        </mxCell>
        <mxCell id="NriJVtc9jb94uUBbqhKk-64" value="" style="endArrow=none;html=1;rounded=0;" edge="1" parent="1">
          <mxGeometry width="50" height="50" relative="1" as="geometry">
            <mxPoint x="910" y="650" as="sourcePoint" />
            <mxPoint x="910" y="520" as="targetPoint" />
          </mxGeometry>
        </mxCell>
        <mxCell id="NriJVtc9jb94uUBbqhKk-65" value="" style="endArrow=none;html=1;rounded=0;" edge="1" parent="1">
          <mxGeometry width="50" height="50" relative="1" as="geometry">
            <mxPoint x="790" y="650" as="sourcePoint" />
            <mxPoint x="910" y="650" as="targetPoint" />
          </mxGeometry>
        </mxCell>
        <mxCell id="NriJVtc9jb94uUBbqhKk-66" value="" style="endArrow=classic;html=1;rounded=0;" edge="1" parent="1">
          <mxGeometry width="50" height="50" relative="1" as="geometry">
            <mxPoint x="910" y="520" as="sourcePoint" />
            <mxPoint x="850" y="520" as="targetPoint" />
          </mxGeometry>
        </mxCell>
        <mxCell id="NriJVtc9jb94uUBbqhKk-67" value="" style="endArrow=none;html=1;rounded=0;" edge="1" parent="1">
          <mxGeometry width="50" height="50" relative="1" as="geometry">
            <mxPoint x="910" y="470" as="sourcePoint" />
            <mxPoint x="910" y="310" as="targetPoint" />
          </mxGeometry>
        </mxCell>
        <mxCell id="NriJVtc9jb94uUBbqhKk-69" value="" style="endArrow=none;html=1;rounded=0;" edge="1" parent="1">
          <mxGeometry width="50" height="50" relative="1" as="geometry">
            <mxPoint x="790" y="470" as="sourcePoint" />
            <mxPoint x="910" y="470" as="targetPoint" />
          </mxGeometry>
        </mxCell>
        <mxCell id="NriJVtc9jb94uUBbqhKk-70" value="" style="endArrow=classic;html=1;rounded=0;" edge="1" parent="1">
          <mxGeometry width="50" height="50" relative="1" as="geometry">
            <mxPoint x="910" y="310" as="sourcePoint" />
            <mxPoint x="850" y="310" as="targetPoint" />
          </mxGeometry>
        </mxCell>
        <mxCell id="NriJVtc9jb94uUBbqhKk-74" value="" style="endArrow=none;html=1;rounded=0;" edge="1" parent="1">
          <mxGeometry width="50" height="50" relative="1" as="geometry">
            <mxPoint x="286" y="430" as="sourcePoint" />
            <mxPoint x="286" y="340" as="targetPoint" />
          </mxGeometry>
        </mxCell>
        <mxCell id="NriJVtc9jb94uUBbqhKk-75" value="" style="endArrow=none;html=1;rounded=0;" edge="1" parent="1">
          <mxGeometry width="50" height="50" relative="1" as="geometry">
            <mxPoint x="290" y="340" as="sourcePoint" />
            <mxPoint x="550" y="340" as="targetPoint" />
          </mxGeometry>
        </mxCell>
        <mxCell id="NriJVtc9jb94uUBbqhKk-76" value="" style="endArrow=none;html=1;rounded=0;" edge="1" parent="1">
          <mxGeometry width="50" height="50" relative="1" as="geometry">
            <mxPoint x="550" y="610" as="sourcePoint" />
            <mxPoint x="550" y="340" as="targetPoint" />
          </mxGeometry>
        </mxCell>
        <mxCell id="NriJVtc9jb94uUBbqhKk-77" value="" style="endArrow=classic;html=1;rounded=0;entryX=0;entryY=0.5;entryDx=0;entryDy=0;" edge="1" parent="1" target="NriJVtc9jb94uUBbqhKk-4">
          <mxGeometry width="50" height="50" relative="1" as="geometry">
            <mxPoint x="550" y="610" as="sourcePoint" />
            <mxPoint x="600" y="560" as="targetPoint" />
          </mxGeometry>
        </mxCell>
        <mxCell id="NriJVtc9jb94uUBbqhKk-78" value="&lt;b&gt;&lt;font style=&quot;font-size: 14px;&quot; color=&quot;#ff0000&quot;&gt;ENCODER&lt;/font&gt;&lt;/b&gt;" style="text;html=1;align=center;verticalAlign=middle;whiteSpace=wrap;rounded=0;" vertex="1" parent="1">
          <mxGeometry x="80" y="320" width="60" height="30" as="geometry" />
        </mxCell>
        <mxCell id="NriJVtc9jb94uUBbqhKk-79" value="&lt;font color=&quot;#9933ff&quot;&gt;&lt;span style=&quot;font-size: 14px;&quot;&gt;&lt;b&gt;DECODER&lt;/b&gt;&lt;/span&gt;&lt;/font&gt;" style="text;html=1;align=center;verticalAlign=middle;whiteSpace=wrap;rounded=0;" vertex="1" parent="1">
          <mxGeometry x="980" y="150" width="60" height="30" as="geometry" />
        </mxCell>
      </root>
    </mxGraphModel>
  </diagram>
</mxfile>
